<?xml version="1.0" encoding="UTF-8" standalone="no"?>
<!DOCTYPE svg PUBLIC "-//W3C//DTD SVG 20010904//EN" "http://www.w3.org/TR/2001/REC-SVG-20010904/DTD/svg10.dtd">
<svg viewBox="0 0 800 600" xmlns="http://www.w3.org/2000/svg">
<defs>
<radialGradient cx=".28283" cy=".47656" id="radialGradient2636" r=".61097">
<stop offset="0" stop-color="#eeefb9"/>
<stop offset="1" stop-color="#e9cb35"/>
</radialGradient>
</defs>
<g id="pear" transform="translate(11.94028,-21.49262)">
<path d="m467.1886,127.3444c-6.977,2.547-2.199,9.219-3.349,14.238-1.666,7.272-12.107,26.251-18.725,29.821-5.45,2.94-14.912,1.179-20.945,1.179-11.4909,0-22.6639,1.189-32.9999,6.799-25.624,13.91-25.664,44.921-42.278,65.186-10.647,12.988-31.178,17.672-44.721,27.07-17.8271,12.37-30.2261,36.421-35.7121,56.945-4.818,18.027-8.969,40.8309-3.385,58.9999 14.588,47.461 64.6951,78.656 112.0961,83.17 15.431,1.469 33.113,2.375 47.9999-2.869 51.924-18.29 77.601-66.365 71.826-120.3009-1.797-16.791-12.251-31.185-11.811-48 .217-8.299 4.853-14.6 7.892-22 5.55-13.51 10.9-31.186 7.703-46-3.001-13.898-13.428-29.762-23.02-39.83-3.841-4.031-15.154-10.221-15.26-16.17-.094-5.314 7.651-18.288 12.76-20.017 4.936-1.67 12.703,2.642 15.302-4.038 2.471-6.351-13.546-17.974-17.562-22.626-1.553-1.799-3.523-2.393-5.811-1.557z" fill="#776430"/>
<path d="m420.1697,181.1394c-27.825,4.672-42.34,21.555-53.613,46.443-3.95,8.722-5.304,19.156-11.326,26.907-7.685,9.891-21.914,12.162-32.061,18.466-19.349,12.019-33.7621,29.548-42.4821,50.627-2.963,7.161-3.49,14.543-4.893,22-2.293,12.194-3.623,27.7989-.211,39.9999 9.576,34.242 45.8601,58.302 77.5861,68.934 13.655,4.577 31.443,9.997 46,7.598 15.659-2.58 31.4879-6.274 44.9999-15.052 31.396-20.396 44.621-59.611 42.856-95.4799-.806-16.391-11.775-31.763-11.462-48 .367-19.103 12.936-35.772 14.513-55 2.975-36.298-31.292-73.926-69.9069-67.443z" fill="url(#radialGradient2636)"/>
</g>
</svg>
